<?xml version="1.0" encoding="utf-8"?>
<!-- Generator: Adobe Illustrator 23.0.0, SVG Export Plug-In . SVG Version: 6.00 Build 0)  -->
<svg version="1.1" id="Layer_1" xmlns="http://www.w3.org/2000/svg" xmlns:xlink="http://www.w3.org/1999/xlink" x="0px" y="0px"
	 viewBox="0 0 550 102" style="enable-background:new 0 0 550 102;" xml:space="preserve">
<style type="text/css">
	.st0{clip-path:url(#SVGID_2_);}
</style>
<polyline points="36.43,60.33 36.43,64.07 31.31,64.07 29.59,65.8 29.59,53.71 37.92,53.71 36.43,55.21 36.43,59.07 31.03,59.07 
	31.03,60.33 36.43,60.33 "/>
<polyline points="36.43,41.54 36.43,45.41 31.03,45.41 31.03,46.67 36.43,46.67 36.43,50.41 31.31,50.41 29.59,52.13 29.59,40.04 
	37.92,40.04 36.43,41.54 "/>
<polyline points="26.13,60.33 26.13,64.07 21.02,64.07 19.3,65.8 19.3,53.71 27.63,53.71 26.13,55.21 26.13,59.07 20.74,59.07 
	20.74,60.33 26.13,60.33 "/>
<g>
	<defs>
		<rect id="SVGID_1_" x="0.06" y="0.38" width="549.93" height="101.56"/>
	</defs>
	<clipPath id="SVGID_2_">
		<use xlink:href="#SVGID_1_"  style="overflow:visible;"/>
	</clipPath>
	<polyline class="st0" points="26.13,41.54 26.13,45.41 20.74,45.41 20.74,46.67 26.13,46.67 26.13,50.41 21.02,50.41 19.3,52.13 
		19.3,40.04 27.63,40.04 26.13,41.54 	"/>
	<path class="st0" d="M28.26,0.38L0,9.71v63.26c2.38-0.26,4.79-0.56,7.22-0.91c0.86-0.13,1.71-0.26,2.57-0.4V35.49h5.7l-0.99,1.15
		v34.2c0.54-0.1,1.07-0.2,1.61-0.31V35.49H41.8l-0.99,1.15v27.14c0.54-0.2,1.07-0.39,1.61-0.59v-27.7h4.32V61.5
		c3.46-1.43,6.73-2.95,9.78-4.55V9.71L28.26,0.38 M48.21,33.82H8.31l-0.06-0.07l1.54-2.06v-8.63L8.99,21.9l0.96-1.24v-2.03
		l-0.49-0.8l1.04-1.65h0.24c-0.24-0.55-0.48-1.4-0.5-2.64l0-0.18l0.18-0.03c0.11-0.02,0.22-0.03,0.33-0.05
		c-0.04-0.13-0.06-0.28-0.06-0.43c0-0.55,0.26-0.97,0.66-0.97c0.34,0,0.6,0.42,0.6,0.97c0,0.15-0.02,0.3-0.06,0.43
		c0.12,0.01,0.23,0.03,0.34,0.05l0.17,0.03l0,0.18c-0.01,1.24-0.26,2.09-0.5,2.64h0.3l1.06,1.65l-0.49,0.8v2.03l0.96,1.24
		l-0.61,0.89h1.28v0.01l-1.05,1.14v2.22h2.19v0.02l-0.85,0.93v2.31h2.84v-3.31h1.5V25.8l-0.67-0.65l1.12-1.16
		c-0.21-0.46-0.44-1.21-0.45-2.33l0-0.18l0.17-0.03c0.49-0.09,1-0.09,1.51,0l0.18,0.03l0,0.18c-0.02,1.12-0.24,1.87-0.46,2.32
		l1.12,1.16l-0.67,0.65v0.31h1.31v0.07l-0.85,0.92v2.31h2.84v-3.31h1.19v-3.05h1.48v-1.81l-0.5-0.81l1.18-1.55h0.21
		c-0.2-0.47-0.4-1.19-0.41-2.23l0-0.18l0.17-0.03c0.08-0.01,0.17-0.03,0.25-0.04c-0.03-0.11-0.04-0.22-0.04-0.34
		c0-0.49,0.24-0.86,0.54-0.86c0.31,0,0.55,0.37,0.55,0.86c0,0.12-0.01,0.24-0.04,0.34c0.09,0.01,0.17,0.02,0.25,0.04l0.17,0.03
		l0,0.18c-0.01,1.07-0.22,1.79-0.41,2.23H29l1.18,1.55l-0.5,0.81v1.81h1.44l-0.81,0.88v2.18h2.02v0.04l-0.88,0.96v2.31h2.86v-3.31
		h1.51V25.8l-0.67-0.65l1.13-1.16c-0.21-0.45-0.44-1.2-0.45-2.32l0-0.18L36,21.46c0.49-0.09,1.01-0.09,1.51,0l0.17,0.03v0.18
		c-0.01,1.12-0.24,1.87-0.45,2.32l1.12,1.16l-0.67,0.65v0.31h1.32v0.03L38.1,27.1v2.31h2.87v-3.26h1.15v-3.36h1.27l-0.6-0.89
		l0.96-1.24v-2.03l-0.49-0.8l1.05-1.65h0.3c-0.25-0.55-0.48-1.4-0.5-2.64l0-0.18l0.17-0.03c0.11-0.02,0.22-0.03,0.33-0.05
		c-0.04-0.13-0.06-0.28-0.06-0.43c0-0.55,0.26-0.97,0.6-0.97s0.6,0.42,0.6,0.97c0,0.15-0.02,0.3-0.06,0.43
		c0.12,0.01,0.22,0.03,0.33,0.05l0.17,0.03l0,0.18c-0.01,1.25-0.26,2.1-0.5,2.64H46l1.07,1.64l-0.49,0.8v2.03l0.96,1.24l-0.79,1.17
		v8.63l1.54,2.06L48.21,33.82z"/>
	<path class="st0" d="M0.02,75.51v17.17L28.28,102l28.25-9.33V63.74C38.8,70.39,19.81,74.47,0.02,75.51 M24.14,90.99h-4.52l0.4-1.01
		v-0.9L9.99,82.14v7.85l0.49,1H5.74l0.49-1v-10.9l-0.59-0.99l4.3,0.03l10.08,6.9v-5.95l-0.08-0.12l-0.42-0.86h4.61l-0.49,1v10.89
		L24.14,90.99z M31.91,90.99h-4.52l0.4-1.01l0.01-10.91l-0.08-0.12l-0.42-0.86h4.61l-0.49,1v10.89L31.91,90.99z M50.83,79.07v9.63
		l-2.91,2.31H38.5l-2.92-2.32l0.01-9.62l-0.48-0.98h4.63l-0.49,1v8.98h7.92v-8.98l-0.49-1h4.63L50.83,79.07z"/>
</g>
<path d="M98.99,63.91L85.35,45.31v13.46c0,1.47,0.11,2.36,0.33,2.67c0.22,0.3,0.9,0.49,2.03,0.57l0.3,0.02v1.55h-7.74v-1.55
	L80.59,62c1.12-0.08,1.79-0.27,2.01-0.57c0.22-0.3,0.33-1.19,0.33-2.67V43.78c0-1.48-0.11-2.36-0.32-2.66
	c-0.22-0.3-0.89-0.49-2.02-0.58l-0.31-0.02v-1.54h6.16l13.54,18.56V43.78c0-1.48-0.11-2.36-0.32-2.66c-0.22-0.3-0.89-0.49-2.02-0.58
	l-0.32-0.02v-1.54h7.74v1.54l-0.3,0.02c-1.12,0.09-1.8,0.28-2.02,0.58c-0.22,0.3-0.33,1.18-0.33,2.66v20.13H98.99"/>
<path d="M115.17,63.98c-2.94,0-5.26-0.85-6.95-2.55c-1.69-1.7-2.53-4.03-2.53-6.98c0-2.96,0.84-5.28,2.53-6.98
	c1.69-1.7,4-2.55,6.95-2.55c2.93,0,5.24,0.85,6.93,2.55c1.69,1.7,2.53,4.03,2.53,6.98c0,2.96-0.84,5.28-2.53,6.98
	C120.41,63.13,118.1,63.98,115.17,63.98 M115.17,62.23c1.35,0,2.36-0.65,3.03-1.95c0.67-1.3,1-3.25,1-5.84c0-2.6-0.33-4.55-1-5.85
	c-0.67-1.29-1.68-1.94-3.03-1.94c-1.35,0-2.36,0.65-3.04,1.94c-0.68,1.3-1.01,3.25-1.01,5.85c0,2.59,0.34,4.54,1.01,5.84
	C112.81,61.58,113.82,62.23,115.17,62.23"/>
<path d="M133.05,50.54v8.2c0,1.5,0.12,2.4,0.37,2.69c0.24,0.29,1.05,0.48,2.41,0.56l0.32,0.02v1.55h-10.66v-1.55L125.8,62
	c1.12-0.08,1.79-0.27,2.01-0.57c0.22-0.3,0.33-1.2,0.33-2.68v-8.6c0-1.48-0.11-2.38-0.33-2.68c-0.22-0.3-0.89-0.49-2.01-0.57
	l-0.31-0.02v-1.55h7.57v3.44c1.49-2.57,3.43-3.85,5.81-3.85c0.25,0,0.57,0.04,0.96,0.13v5.81h-2.26l-0.02-0.3
	c-0.09-1.23-0.17-1.92-0.24-2.08c-0.07-0.16-0.35-0.24-0.82-0.24C135.07,48.23,133.93,49.01,133.05,50.54"/>
<path d="M153.73,63.41c-1.03,0.38-2.04,0.57-3.02,0.57c-2.05,0-3.58-0.51-4.61-1.52c-1.02-1.01-1.54-2.53-1.54-4.56V46.97h-2.26
	v-1.64h2.26v-3.07l4.92-0.86v3.93h4.03v1.64h-4.03v11.04c0,1.63,0.16,2.7,0.48,3.22c0.32,0.52,0.99,0.78,1.99,0.78
	c0.56,0,1.15-0.13,1.78-0.38V63.41"/>
<path d="M163.36,48.77c0.75-1.28,1.65-2.25,2.69-2.89c1.04-0.64,2.23-0.96,3.55-0.96c1.64,0,2.92,0.5,3.85,1.51
	c0.92,1.02,1.38,2.43,1.38,4.23v8.09c0,1.48,0.11,2.38,0.34,2.68c0.23,0.31,0.9,0.5,2.02,0.57l0.31,0.02v1.54h-10.24v-1.54l0.3-0.02
	c1.13-0.08,1.8-0.27,2.03-0.57c0.22-0.3,0.33-1.2,0.33-2.68v-7.52c0-1.29-0.15-2.17-0.46-2.63c-0.31-0.46-0.89-0.69-1.75-0.69
	c-0.74,0-1.48,0.22-2.2,0.67c-0.72,0.45-1.44,1.13-2.15,2.03v8.14c0,1.48,0.11,2.38,0.34,2.68c0.23,0.31,0.89,0.5,2.01,0.57
	l0.31,0.02v1.54h-10.23v-1.54L156.1,62c1.12-0.08,1.79-0.27,2.01-0.57c0.22-0.3,0.33-1.2,0.33-2.68V42.16
	c0-1.48-0.11-2.37-0.33-2.68c-0.22-0.31-0.89-0.5-2.01-0.56l-0.32-0.03v-1.54h7.57V48.77"/>
<path d="M194.99,62.85c-2.17,0.75-4.28,1.13-6.34,1.13c-3.11,0-5.57-0.88-7.38-2.62s-2.71-4.12-2.71-7.12
	c0-2.77,0.82-5.01,2.45-6.73c1.63-1.72,3.76-2.58,6.38-2.58c5.07,0,7.61,3.11,7.61,9.33v0.36H183.6c0,2.31,0.54,4.03,1.61,5.18
	c1.07,1.15,2.68,1.73,4.83,1.73c1.46,0,3.11-0.4,4.95-1.19V62.85 M183.71,53.07h6.44v-0.58c0-2.2-0.22-3.76-0.67-4.67
	c-0.44-0.91-1.21-1.36-2.3-1.36c-1.15,0-2.02,0.55-2.61,1.65C184.01,49.21,183.71,50.87,183.71,53.07"/>
<path d="M204.7,50.54v8.2c0,1.5,0.12,2.4,0.36,2.69c0.24,0.29,1.05,0.48,2.41,0.56l0.32,0.02v1.55h-10.66v-1.55l0.32-0.02
	c1.12-0.08,1.79-0.27,2.01-0.57c0.22-0.3,0.33-1.2,0.33-2.68v-8.6c0-1.48-0.11-2.38-0.33-2.68c-0.22-0.3-0.89-0.49-2.01-0.57
	l-0.32-0.02v-1.55h7.57v3.44c1.49-2.57,3.43-3.85,5.81-3.85c0.26,0,0.58,0.04,0.96,0.13v5.81h-2.26l-0.02-0.3
	c-0.09-1.23-0.17-1.92-0.24-2.08c-0.07-0.16-0.35-0.24-0.82-0.24C206.72,48.23,205.58,49.01,204.7,50.54"/>
<path d="M221.11,48.77c0.75-1.28,1.65-2.25,2.69-2.89c1.04-0.64,2.23-0.96,3.55-0.96c1.64,0,2.92,0.5,3.85,1.51
	c0.92,1.02,1.38,2.43,1.38,4.23v8.09c0,1.48,0.11,2.38,0.34,2.68c0.23,0.31,0.9,0.5,2.02,0.57l0.32,0.02v1.54h-10.24v-1.54l0.3-0.02
	c1.13-0.08,1.8-0.27,2.02-0.57c0.22-0.3,0.33-1.2,0.33-2.68v-7.52c0-1.29-0.15-2.17-0.46-2.63c-0.3-0.46-0.89-0.69-1.75-0.69
	c-0.74,0-1.48,0.22-2.2,0.67c-0.72,0.45-1.44,1.13-2.15,2.03v8.14c0,1.48,0.11,2.38,0.34,2.68c0.22,0.31,0.89,0.5,2,0.57l0.31,0.02
	v1.54h-10.23v-1.54l0.32-0.02c1.12-0.08,1.79-0.27,2.01-0.57c0.22-0.3,0.33-1.2,0.33-2.68v-8.6c0-1.48-0.11-2.38-0.33-2.68
	c-0.22-0.3-0.89-0.5-2.01-0.57l-0.32-0.02v-1.55h7.57V48.77"/>
<path d="M255.71,63.56h-10.45v-1.55l0.32-0.02c1.12-0.08,1.79-0.27,2.01-0.57c0.22-0.3,0.33-1.19,0.33-2.67V43.78
	c0-1.48-0.11-2.36-0.32-2.66c-0.22-0.3-0.89-0.49-2.02-0.58l-0.32-0.02v-1.54h10.45v1.54l-0.3,0.02c-1.14,0.09-1.82,0.28-2.03,0.58
	c-0.21,0.3-0.32,1.18-0.32,2.66v14.98c0,1.47,0.11,2.36,0.33,2.67c0.22,0.3,0.9,0.49,2.03,0.57l0.3,0.02V63.56"/>
<path d="M265.89,37.34v21.4c0,1.48,0.11,2.38,0.34,2.68c0.23,0.31,0.89,0.49,2.01,0.57l0.31,0.02v1.55h-10.23v-1.55l0.32-0.02
	c1.12-0.08,1.79-0.27,2.01-0.57c0.22-0.3,0.33-1.2,0.33-2.68V42.16c0-1.48-0.11-2.37-0.33-2.68c-0.22-0.31-0.89-0.5-2.01-0.56
	l-0.32-0.03v-1.54H265.89"/>
<path d="M278.31,37.34v21.4c0,1.48,0.11,2.38,0.34,2.68c0.23,0.31,0.89,0.49,2.01,0.57l0.31,0.02v1.55h-10.23v-1.55l0.32-0.02
	c1.12-0.08,1.79-0.27,2.01-0.57c0.22-0.3,0.33-1.2,0.33-2.68V42.16c0-1.48-0.11-2.37-0.33-2.68c-0.22-0.31-0.89-0.5-2.01-0.56
	l-0.32-0.03v-1.54H278.31"/>
<path d="M290.73,45.33v13.42c0,1.48,0.11,2.38,0.34,2.68c0.23,0.31,0.89,0.5,2.01,0.57l0.31,0.02v1.54h-10.23v-1.54l0.32-0.02
	c1.12-0.08,1.79-0.27,2.01-0.57c0.22-0.3,0.33-1.2,0.33-2.68v-8.6c0-1.48-0.11-2.38-0.33-2.68c-0.22-0.3-0.89-0.5-2.01-0.57
	l-0.32-0.02v-1.55H290.73 M285.81,37.34h4.91v4.92h-4.91V37.34z"/>
<path d="M302.81,48.77c0.75-1.28,1.65-2.25,2.69-2.89c1.04-0.64,2.23-0.96,3.55-0.96c1.64,0,2.92,0.5,3.85,1.51
	c0.92,1.02,1.38,2.43,1.38,4.23v8.09c0,1.48,0.11,2.38,0.34,2.68c0.22,0.31,0.9,0.5,2.02,0.57l0.32,0.02v1.54h-10.25v-1.54l0.3-0.02
	c1.13-0.08,1.81-0.27,2.03-0.57c0.22-0.3,0.33-1.2,0.33-2.68v-7.52c0-1.29-0.15-2.17-0.46-2.63c-0.3-0.46-0.89-0.69-1.75-0.69
	c-0.74,0-1.48,0.22-2.2,0.67c-0.73,0.45-1.44,1.13-2.15,2.03v8.14c0,1.48,0.11,2.38,0.34,2.68c0.23,0.31,0.89,0.5,2,0.57l0.31,0.02
	v1.54h-10.23v-1.54l0.32-0.02c1.12-0.08,1.79-0.27,2.01-0.57c0.22-0.3,0.33-1.2,0.33-2.68v-8.6c0-1.48-0.11-2.38-0.33-2.68
	c-0.22-0.3-0.89-0.5-2.01-0.57l-0.32-0.02v-1.55h7.57V48.77"/>
<path d="M327.14,63.98c-2.95,0-5.26-0.85-6.95-2.55c-1.69-1.7-2.53-4.03-2.53-6.98c0-2.96,0.84-5.28,2.53-6.98
	c1.69-1.7,4-2.55,6.95-2.55c2.93,0,5.24,0.85,6.93,2.55c1.69,1.7,2.53,4.03,2.53,6.98c0,2.96-0.85,5.28-2.53,6.98
	C332.39,63.13,330.08,63.98,327.14,63.98 M327.14,62.23c1.35,0,2.36-0.65,3.03-1.95c0.67-1.3,1-3.25,1-5.84c0-2.6-0.33-4.55-1-5.85
	c-0.67-1.29-1.68-1.94-3.03-1.94c-1.35,0-2.36,0.65-3.04,1.94c-0.67,1.3-1.01,3.25-1.01,5.85c0,2.59,0.34,4.54,1.01,5.84
	C324.78,61.58,325.79,62.23,327.14,62.23"/>
<path d="M345.71,45.33v13.42c0,1.48,0.11,2.38,0.34,2.68c0.23,0.31,0.89,0.5,2.01,0.57l0.31,0.02v1.54h-10.23v-1.54l0.32-0.02
	c1.12-0.08,1.79-0.27,2.01-0.57c0.22-0.3,0.33-1.2,0.33-2.68v-8.6c0-1.48-0.11-2.38-0.33-2.68c-0.22-0.3-0.89-0.5-2.01-0.57
	l-0.32-0.02v-1.55H345.71 M340.79,37.34h4.92v4.92h-4.92V37.34z"/>
<path d="M350.52,62.73v-4.7h2.24l0.02,0.3c0.06,1.37,0.27,2.25,0.61,2.64c0.89,0.97,2.21,1.46,3.95,1.46c0.85,0,1.56-0.27,2.14-0.81
	c0.58-0.54,0.88-1.21,0.88-2.01c0-1.23-1.04-2.25-3.11-3.07l-1.51-0.6c-3.49-1.38-5.23-3.25-5.23-5.6c0-1.66,0.67-2.98,2.02-3.96
	c1.34-0.98,3.16-1.47,5.45-1.47c1.81,0,3.7,0.29,5.67,0.86v4.37h-2.26l-0.02-0.32l-0.03-0.8c0-1.72-1-2.57-3-2.57
	c-0.87,0-1.61,0.28-2.22,0.85c-0.61,0.56-0.91,1.26-0.91,2.08c0,0.69,0.23,1.23,0.67,1.62s1.37,0.85,2.76,1.39l1.49,0.58
	c3.4,1.31,5.1,3.06,5.1,5.25c0,1.67-0.72,3.05-2.16,4.13c-1.44,1.08-3.26,1.63-5.48,1.63C354.87,63.98,352.5,63.56,350.52,62.73"/>
<path d="M373.83,38.98h10.44v1.54l-0.3,0.02c-1.14,0.09-1.81,0.28-2.03,0.58c-0.22,0.3-0.33,1.18-0.33,2.66v10.63
	c0,2.95,0.42,5.04,1.25,6.28c0.83,1.24,2.24,1.86,4.23,1.86c2.12,0,3.65-0.65,4.62-1.96c0.96-1.31,1.44-3.41,1.44-6.31V43.78
	c0-1.48-0.11-2.36-0.32-2.66c-0.22-0.3-0.9-0.49-2.03-0.58l-0.3-0.02v-1.54h7.72v1.54l-0.3,0.02c-1.12,0.09-1.78,0.28-1.99,0.58
	c-0.21,0.3-0.32,1.18-0.32,2.66v10.1c0,3.53-0.74,6.13-2.23,7.79c-1.49,1.67-3.81,2.51-6.96,2.51c-6.63,0-9.94-3.32-9.94-9.96V43.9
	c0-1.48-0.11-2.38-0.33-2.69c-0.22-0.31-0.89-0.5-2.01-0.56l-0.31-0.03V38.98"/>
<path d="M407.01,48.76c0.75-1.28,1.65-2.25,2.69-2.89c1.04-0.64,2.22-0.96,3.55-0.96c1.64,0,2.92,0.5,3.85,1.51
	c0.92,1.02,1.38,2.43,1.38,4.23v8.09c0,1.48,0.11,2.38,0.34,2.68c0.22,0.31,0.9,0.5,2.02,0.57l0.32,0.02v1.54h-10.24v-1.54l0.3-0.02
	c1.13-0.08,1.8-0.27,2.03-0.57c0.22-0.3,0.33-1.2,0.33-2.68v-7.52c0-1.29-0.15-2.17-0.46-2.63c-0.31-0.46-0.89-0.69-1.75-0.69
	c-0.74,0-1.48,0.23-2.2,0.67c-0.73,0.45-1.44,1.13-2.15,2.03v8.14c0,1.48,0.11,2.38,0.34,2.68c0.23,0.31,0.89,0.5,2,0.57l0.32,0.02
	v1.54h-10.23v-1.54l0.32-0.02c1.12-0.08,1.79-0.27,2.01-0.57c0.22-0.3,0.33-1.2,0.33-2.68v-8.6c0-1.48-0.11-2.38-0.33-2.68
	c-0.22-0.31-0.89-0.49-2.01-0.57l-0.32-0.02v-1.55h7.57V48.76"/>
<path d="M430.61,45.32v13.42c0,1.48,0.11,2.38,0.34,2.68c0.23,0.31,0.89,0.5,2.01,0.57l0.31,0.01v1.55h-10.23v-1.55l0.32-0.01
	c1.12-0.08,1.79-0.27,2.01-0.57c0.22-0.3,0.33-1.2,0.33-2.68v-8.6c0-1.48-0.11-2.38-0.33-2.68c-0.22-0.31-0.89-0.49-2.01-0.57
	l-0.32-0.02v-1.55H430.61 M425.69,37.34h4.92v4.92h-4.92V37.34z"/>
<path d="M442.52,63.76l-6.56-13.55c-0.77-1.51-1.33-2.42-1.67-2.75c-0.34-0.33-0.93-0.52-1.77-0.57l-0.32-0.02v-1.54h10.25v1.54
	l-0.32,0.02c-1.17,0.08-1.77,0.3-1.81,0.66c-0.02,0.26,0.33,1.14,1.07,2.66l3.63,7.54l3.73-7.54c0.74-1.48,1.11-2.4,1.11-2.76
	c0-0.3-0.59-0.49-1.78-0.56l-0.3-0.02v-1.54h6.75v1.54l-0.32,0.02c-0.86,0.06-1.44,0.22-1.74,0.51c-0.3,0.28-0.86,1.2-1.68,2.76
	l-6.77,13.61H442.52"/>
<path d="M470.34,62.84c-2.17,0.75-4.29,1.13-6.34,1.13c-3.11,0-5.57-0.88-7.38-2.62c-1.81-1.75-2.71-4.12-2.71-7.12
	c0-2.77,0.82-5.01,2.45-6.73c1.63-1.72,3.76-2.58,6.38-2.58c5.07,0,7.61,3.11,7.61,9.33v0.36h-11.39c0,2.3,0.54,4.03,1.61,5.18
	c1.08,1.15,2.68,1.73,4.83,1.73c1.46,0,3.11-0.4,4.95-1.19V62.84 M459.06,53.06h6.44v-0.58c0-2.2-0.22-3.76-0.67-4.67
	c-0.44-0.91-1.21-1.36-2.3-1.36c-1.16,0-2.02,0.55-2.61,1.65C459.35,49.21,459.06,50.86,459.06,53.06"/>
<path d="M480.05,50.54v8.2c0,1.51,0.12,2.4,0.37,2.69c0.24,0.29,1.05,0.48,2.41,0.56l0.32,0.02v1.54h-10.66v-1.54l0.32-0.02
	c1.12-0.08,1.79-0.27,2.01-0.57c0.22-0.3,0.33-1.2,0.33-2.68v-8.6c0-1.48-0.11-2.38-0.33-2.68c-0.22-0.3-0.89-0.49-2.01-0.57
	l-0.32-0.02v-1.55h7.57v3.44c1.49-2.57,3.43-3.85,5.81-3.85c0.25,0,0.57,0.04,0.96,0.13v5.81h-2.26l-0.02-0.3
	c-0.09-1.23-0.17-1.92-0.24-2.08c-0.07-0.16-0.35-0.24-0.82-0.24C482.07,48.23,480.92,49,480.05,50.54"/>
<path d="M489.19,62.72v-4.7h2.24l0.02,0.3c0.07,1.37,0.27,2.25,0.61,2.64c0.89,0.97,2.21,1.46,3.96,1.46c0.85,0,1.56-0.27,2.14-0.81
	c0.58-0.54,0.88-1.21,0.88-2.01c0-1.23-1.04-2.25-3.11-3.07l-1.51-0.6c-3.49-1.38-5.23-3.25-5.23-5.6c0-1.66,0.67-2.98,2.01-3.96
	c1.34-0.98,3.16-1.47,5.45-1.47c1.81,0,3.7,0.29,5.67,0.86v4.37h-2.26l-0.01-0.32l-0.03-0.8c0-1.72-1-2.57-3-2.57
	c-0.87,0-1.61,0.28-2.22,0.85c-0.61,0.56-0.91,1.26-0.91,2.08c0,0.69,0.22,1.23,0.67,1.62c0.45,0.39,1.37,0.85,2.76,1.39l1.49,0.58
	c3.4,1.31,5.1,3.05,5.1,5.25c0,1.67-0.72,3.05-2.16,4.13c-1.44,1.09-3.26,1.63-5.48,1.63C493.54,63.97,491.17,63.56,489.19,62.72"/>
<path d="M513.61,45.32v13.42c0,1.48,0.11,2.38,0.34,2.68c0.22,0.31,0.89,0.5,2.01,0.57l0.31,0.01v1.55h-10.23v-1.55l0.32-0.01
	c1.12-0.08,1.79-0.27,2.01-0.57c0.22-0.3,0.33-1.2,0.33-2.68v-8.6c0-1.48-0.11-2.38-0.33-2.68c-0.22-0.31-0.89-0.49-2.01-0.57
	l-0.32-0.02v-1.55H513.61 M508.7,37.34h4.92v4.92h-4.92V37.34z"/>
<path d="M528.72,46.97h-4.03v11.04c0,1.63,0.16,2.7,0.48,3.22c0.32,0.52,0.98,0.78,1.99,0.78c0.55,0,1.14-0.13,1.77-0.38v1.78
	c-1.03,0.38-2.03,0.56-3.02,0.56c-2.05,0-3.58-0.51-4.61-1.52c-1.02-1.01-1.54-2.53-1.54-4.56V46.97h-2.26v-1.64h2.26v-3.07
	l4.91-0.86v3.94h13.41v1.54h-0.3c-1.34,0-2.01,0.2-2.01,0.6c0,0.23,0.35,1.12,1.05,2.66l3.41,7.53l3.99-7.56
	c0.8-1.49,1.19-2.41,1.19-2.74c0-0.33-0.56-0.5-1.69-0.5h-0.3v-1.54h6.55v1.54l-0.32,0.02c-0.95,0.07-1.55,0.21-1.8,0.44
	c-0.25,0.23-0.8,1.15-1.67,2.78l-10.65,20.01h-4.36l6.23-6.76l-6.13-13.27c-0.76-1.56-1.28-2.47-1.54-2.73
	C529.75,47.36,529.45,46.97,528.72,46.97"/>
</svg>
